<svg width="141" height="127" xmlns="http://www.w3.org/2000/svg"><path d="M47.491 64.974c.093-1.504.185-3.01.383-4.531.365-3.607 1.149-7.23 1.95-10.752a120.838 120.838 0 011.57-5.19c.708-1.657 1.402-3.305 2.094-4.914 1.565-3.141 3.316-6.076 5.405-8.533.496-.633.988-1.247 1.469-1.863.55-.549 1.1-1.081 1.63-1.613 1.119-1.01 2.09-2.105 3.206-2.908 2.227-1.647 4.197-3.214 6.202-4.184 1.933-1.077 3.591-2.012 5.086-2.54 2.929-1.178 4.591-1.77 4.591-1.77s-1.417 1.124-3.895 2.948c-1.28.835-2.637 2.152-4.253 3.502-1.683 1.287-3.208 3.132-5.02 4.9-.907.904-1.61 2.04-2.468 3.084-.417.532-.844 1.069-1.285 1.614-.356.6-.725 1.203-1.1 1.82-1.599 2.368-2.795 5.149-4.041 7.97-.511 1.477-1.029 2.974-1.557 4.487-.361 1.572-.76 3.162-1.196 4.746-.655 3.254-1.297 6.574-1.575 9.988-.192 1.238-.285 2.486-.401 3.744 27.147.004 48.159.021 77.56.021.098-1.288.154-2.592.154-3.903 0-24.739-18.044-45.114-41.263-47.813a7.647 7.647 0 002.448-5.598C93.193 3.437 89.749 0 85.505 0c-4.248 0-7.696 3.437-7.696 7.686 0 2.214.945 4.197 2.448 5.598C57.039 15.983 39 36.358 39 61.097c0 1.307.047 2.594.144 3.878h8.347zM31 68h110v10H31zm64.693 16.39c-5.595 2.689-25.102 9.649-25.102 9.649l-23.059-1.43s13.19-3.628 18.303-4.764c5.122-1.132 2.894-6.845.062-6.845-2.831 0-27.51 1.008-27.51 1.008L22 87.845 26.337 115s3.374-5.714 6.739-5.714c3.378 0 32.636.77 36.608 0 3.974-.778 28.177-17.157 31.075-19.068 2.886-1.901.55-8.52-5.066-5.828zM0 91.321V127l25-4.714L18.746 88z" fill="#4E2164"/></svg>