<svg width="130" height="130" xmlns="http://www.w3.org/2000/svg"><path d="M63.983 48.102c1.176.466 2.33-.674 1.94-1.887-2.675-8.328-12.36-11.435-21.363-4.047-4.736 3.887-6.515 4.713-6.56 4.734 3.122 3.154 6.689 13.737 14.473 14.907 8.574 1.57 16.163-6.952 9.954-10.853a26.31 26.31 0 00-14.044-4.054 26.33 26.33 0 0115.6 1.2zm40.178-6.422c-16.198-13.193-26.529 7.612-20.107 5.55a27.544 27.544 0 0114.547-.654c-8.473 0-16.284 3.894-21.492 10.231.428-9.96 1.075-16.194 1.825-20.831 4.328-.15 10.097-3.654 13.265-9.786 5.462-9.8 2.93-19.85 2.114-26.19-4.268 4.167-22.91-.716-30.301 11.982-3.265 5.61-2.316 12.435 1.118 17.43 1.088 1.581 3.687.822 3.761-1.097.323-8.347 4.466-14.654 12.19-18.147a37.722 37.722 0 00-6.917 14.755c-1.828 8.117-3.737 13.442-4.438 39.314-.07 2.624 2.05 4.796 4.667 4.763 1.895-.024 3.518-1.23 4.247-2.984 1.108-2.668 2.912-5.429 5.848-7.958 2.79 3.091 7.035 4.736 11.427 3.938 8.079-1.206 11.85-12.176 15.085-15.42-.047-.021-1.903-.876-6.839-4.896zm24.141 31.53c-5.054-3.468-10.554-.997-13.08.478l-31.7 23.463-18.56.005-4.64-4.693h17.045c5.127 0 10.868-3.377 10.868-9.387 0-6.382-5.741-9.388-10.868-9.388H70.98c-4.745 0-10.29.428-14.2-1.689C53.064 70.088 48.786 69 44.22 69c-7.667 0-14.53 3.091-19.232 7.966L0 101.844 27.84 130l9.281-14.078h43.854c4.677 0 9.192-1.735 12.688-4.876l34.956-31.404c1.943-1.746 1.834-4.956-.317-6.432z" fill="#4E2164"/></svg>