<svg width="154" height="127" xmlns="http://www.w3.org/2000/svg"><path d="M149.577 29.418L133.45 3.721A7.958 7.958 0 00126.716 0H26.326a7.958 7.958 0 00-6.734 3.72L3.465 29.419c-8.325 13.27-.944 31.726 14.611 33.834a25.87 25.87 0 003.404.223c7.356 0 13.866-3.224 18.339-8.21 4.473 4.986 11.008 8.21 18.338 8.21 7.356 0 13.866-3.224 18.339-8.21 4.473 4.986 11.008 8.21 18.338 8.21 7.356 0 13.866-3.224 18.339-8.21 4.498 4.986 11.008 8.21 18.339 8.21 1.167 0 2.286-.074 3.404-.223 15.605-2.084 23.01-20.538 14.66-33.834zm-18.016 42.02c-2.485 0-4.945-.373-7.33-.943V95.25H28.81V70.495c-2.386.546-4.846.942-7.33.942a33.65 33.65 0 01-4.473-.297c-1.392-.199-2.759-.521-4.076-.893v48.816c0 4.39 3.554 7.937 7.952 7.937h111.323a7.936 7.936 0 007.952-7.938V70.248c-1.342.397-2.684.72-4.075.893a34.617 34.617 0 01-4.523.297z" fill="#4E2164"/></svg>