<svg width="132" height="127" xmlns="http://www.w3.org/2000/svg"><path d="M121 122.606V31.64L66 0 11 31.64v90.966H0V127h132v-4.394h-11zM85.8 45.702h20.02c1.1 0 1.98 1.099 1.98 2.197v10.987h-22V45.702zm0 17.578h22v13.183h-22V63.28zm0 17.578h22v13.183h-22V80.858zm-26.4-4.395V63.28h22v13.183h-22zm22 4.395v13.183h-22V80.858h22zm-22-21.972V47.899c0-1.098.88-2.197 1.98-2.197H81.4v13.184h-22zM52.8 15.82L66 7.91l13.2 7.91v18.895H52.8V15.821zM33.66 66.576c.44-.659 1.1-1.099 1.98-1.099H46.2v-4.394h4.4V94.04H19.14l14.52-27.465zm1.54 56.03c-3.74 0-6.6-2.856-6.6-6.592 0-3.735 2.86-6.592 6.6-6.592 3.74 0 6.6 2.857 6.6 6.592 0 3.736-2.86 6.592-6.6 6.592zm57.2 0c-3.74 0-6.6-2.856-6.6-6.592 0-3.735 2.86-6.592 6.6-6.592 3.74 0 6.6 2.857 6.6 6.592 0 3.736-2.86 6.592-6.6 6.592zm22-10.987c0 1.319-.88 2.198-2.2 2.198h-9.02c-1.32-5.932-7.04-9.888-12.98-8.57-4.4.88-7.7 4.175-8.58 8.57H45.98c-1.32-5.932-7.04-9.888-12.98-8.57-4.4.88-7.7 4.175-8.58 8.57H19.8c-1.32 0-2.2-.88-2.2-2.198V98.436h94.6c1.32 0 2.2.88 2.2 2.197v10.986z" fill="#4E2164"/></svg>